<svg width="20" height="20" viewBox="0 0 20 20" fill="none" xmlns="http://www.w3.org/2000/svg">
<path d="M6.88477 15.7754C6.03516 15.7754 5.48438 15.2363 5.44336 14.3984L5.0332 5.87305H4.33594C4.10156 5.87305 3.89648 5.67383 3.89648 5.42773C3.89648 5.1875 4.10156 4.98828 4.33594 4.98828H6.99609V4.0918C6.99609 3.24219 7.54688 2.72656 8.44922 2.72656H10.6758C11.5781 2.72656 12.1289 3.24219 12.1289 4.0918V4.98828H14.8066C15.0469 4.98828 15.2402 5.1875 15.2402 5.42773C15.2402 5.66797 15.0469 5.87305 14.8066 5.87305H14.1035L13.6992 14.3926C13.6582 15.2305 13.0957 15.7754 12.2578 15.7754H6.88477ZM7.92773 4.15039V4.98828H11.1973V4.15039C11.1973 3.81641 10.9629 3.59961 10.6113 3.59961H8.51367C8.16211 3.59961 7.92773 3.81641 7.92773 4.15039ZM6.9668 14.8906H12.1641C12.5098 14.8906 12.7617 14.6445 12.7734 14.293L13.1602 5.87305H5.95312L6.36328 14.293C6.38086 14.6387 6.63281 14.8906 6.9668 14.8906ZM7.83398 13.8887C7.61719 13.8887 7.4707 13.7539 7.46484 13.543L7.28906 7.2793C7.2832 7.07422 7.42969 6.93359 7.65234 6.93359C7.86328 6.93359 8.00977 7.06836 8.01562 7.27344L8.19727 13.543C8.20312 13.748 8.05664 13.8887 7.83398 13.8887ZM9.56836 13.8887C9.3457 13.8887 9.19336 13.748 9.19336 13.543V7.2793C9.19336 7.07422 9.3457 6.93359 9.56836 6.93359C9.79102 6.93359 9.94922 7.07422 9.94922 7.2793V13.543C9.94922 13.748 9.79102 13.8887 9.56836 13.8887ZM11.3086 13.8887C11.0859 13.8887 10.9395 13.748 10.9453 13.543L11.1211 7.2793C11.127 7.06836 11.2734 6.93359 11.4844 6.93359C11.707 6.93359 11.8535 7.07422 11.8477 7.2793L11.6719 13.543C11.666 13.7539 11.5195 13.8887 11.3086 13.8887Z" fill="#888888"/>
</svg>
