<svg width="24" height="24" viewBox="0 0 24 24" fill="none" xmlns="http://www.w3.org/2000/svg">
<path d="M15.8232 12.0645C15.8232 12.3447 15.7275 12.5771 15.502 12.7959L10.2383 17.9434C10.0605 18.1211 9.84863 18.21 9.5957 18.21C9.08301 18.21 8.66602 17.7998 8.66602 17.2871C8.66602 17.0273 8.77539 16.8018 8.95996 16.6172L13.6357 12.0576L8.95996 7.51172C8.77539 7.32715 8.66602 7.09473 8.66602 6.8418C8.66602 6.3291 9.08301 5.92578 9.5957 5.92578C9.84863 5.92578 10.0605 6.00781 10.2383 6.18555L15.502 11.333C15.7207 11.5518 15.8232 11.7842 15.8232 12.0645Z" fill="#888888"/>
</svg>
