<svg width="21" height="16" viewBox="0 0 21 16" fill="none" xmlns="http://www.w3.org/2000/svg">
<path d="M1.7207 3.28125C1.03711 3.28125 0.490234 2.73438 0.490234 2.05078C0.490234 1.37695 1.03711 0.820312 1.7207 0.820312C2.4043 0.820312 2.95117 1.37695 2.95117 2.05078C2.95117 2.73438 2.4043 3.28125 1.7207 3.28125ZM6.03711 2.8418C5.58789 2.8418 5.24609 2.5 5.24609 2.05078C5.24609 1.61133 5.58789 1.26953 6.03711 1.26953H19.3672C19.8066 1.26953 20.168 1.61133 20.168 2.05078C20.168 2.5 19.8066 2.8418 19.3672 2.8418H6.03711ZM1.7207 9.18945C1.03711 9.18945 0.490234 8.64258 0.490234 7.95898C0.490234 7.27539 1.03711 6.72852 1.7207 6.72852C2.4043 6.72852 2.95117 7.27539 2.95117 7.95898C2.95117 8.64258 2.4043 9.18945 1.7207 9.18945ZM6.03711 8.74023C5.58789 8.74023 5.24609 8.39844 5.24609 7.95898C5.24609 7.51953 5.58789 7.16797 6.03711 7.16797H19.3672C19.8066 7.16797 20.168 7.51953 20.168 7.95898C20.168 8.39844 19.8066 8.74023 19.3672 8.74023H6.03711ZM1.7207 15.0879C1.03711 15.0879 0.490234 14.541 0.490234 13.8574C0.490234 13.1836 1.03711 12.6367 1.7207 12.6367C2.4043 12.6367 2.95117 13.1836 2.95117 13.8574C2.95117 14.541 2.4043 15.0879 1.7207 15.0879ZM6.03711 14.6484C5.58789 14.6484 5.24609 14.3066 5.24609 13.8574C5.24609 13.418 5.58789 13.0762 6.03711 13.0762H19.3672C19.8066 13.0762 20.168 13.418 20.168 13.8574C20.168 14.3066 19.8066 14.6484 19.3672 14.6484H6.03711Z" fill="black"/>
</svg>
